<?xml version="1.0" encoding="utf-8"?>
<!-- Generator: Adobe Illustrator 24.3.0, SVG Export Plug-In . SVG Version: 6.00 Build 0)  -->
<svg version="1.1" id="Capa_1" xmlns="http://www.w3.org/2000/svg" xmlns:xlink="http://www.w3.org/1999/xlink" x="0px" y="0px"
	 viewBox="0 0 841.89 206.17" style="enable-background:new 0 0 841.89 206.17;" xml:space="preserve">
<style type="text/css">
	.st0{fill:#133148;}
	.st1{fill:#34B089;}
	.st2{fill:#FFFFFF;}
</style>
<g>
	<path class="st0" d="M208.31,79.77c-5.12,0-9.28,4.15-9.28,9.28v37.12c0,15.35-12.49,27.84-27.85,27.84
		c-15.33,0-27.81-12.46-27.84-27.79c0-0.02,0-0.03,0-0.05V89.05c0-5.13-4.16-9.28-9.28-9.28c0,0,0,0,0,0s0,0,0,0
		c-5.13,0-9.28,4.15-9.28,9.28v37.12c0,0.01,0,0.02,0,0.03c-0.01,15.34-12.5,27.82-27.84,27.82c-15.35,0-27.84-12.49-27.84-27.84
		V89.05c0-5.13-4.16-9.28-9.28-9.28c-5.13,0-9.28,4.15-9.28,9.28v37.12c0,25.59,20.82,46.4,46.41,46.4
		c15.19,0,28.65-7.37,37.12-18.68c8.47,11.31,21.94,18.68,37.12,18.68c25.59,0,46.41-20.82,46.41-46.4V89.05
		C217.59,83.92,213.44,79.77,208.31,79.77z"/>
	<ellipse class="st1" cx="270.24" cy="126.17" rx="46.41" ry="46.4"/>
	<path class="st0" d="M369.3,79.77c-25.59,0-46.41,20.82-46.41,46.4v37.12c0,5.12,4.16,9.28,9.28,9.28c5.12,0,9.28-4.16,9.28-9.28
		v-37.12c0-15.35,12.49-27.84,27.84-27.84c5.12,0,9.28-4.16,9.28-9.28C378.58,83.92,374.42,79.77,369.3,79.77z"/>
	<path class="st0" d="M411.87,121.53l25.92-25.92c3.62-3.62,3.62-9.5,0-13.13c-3.62-3.63-9.5-3.63-13.13,0l-21.28,21.28V42.64
		c0-5.12-4.16-9.28-9.28-9.28c-5.13,0-9.28,4.16-9.28,9.28V163.3c0,5.12,4.16,9.28,9.28,9.28c5.13,0,9.28-4.16,9.28-9.28v-24
		l30.56,30.56c1.81,1.81,4.18,2.72,6.56,2.72s4.75-0.91,6.57-2.72c3.62-3.62,3.62-9.5,0-13.13L411.87,121.53z"/>
	<path class="st0" d="M641.84,98.33c7.44,0,14.43,2.9,19.69,8.15c3.62,3.63,9.5,3.63,13.13,0c3.62-3.62,3.62-9.5,0-13.13
		c-8.76-8.76-20.41-13.59-32.81-13.59c-25.59,0-46.41,20.82-46.41,46.41c0,25.59,20.82,46.4,46.41,46.4
		c12.4,0,24.05-4.83,32.81-13.59c3.62-3.62,3.62-9.5,0-13.13c-3.62-3.62-9.5-3.62-13.13,0c-5.26,5.26-12.25,8.15-19.69,8.15
		c-15.35,0-27.84-12.49-27.84-27.84C614,110.82,626.49,98.33,641.84,98.33z"/>
	<g>
		<g>
			<path class="st0" d="M580.3,84.07c-4.89,0-8.85,3.96-8.85,8.85v70.8c0,4.89,3.96,8.85,8.85,8.85c4.89,0,8.85-3.96,8.85-8.85
				v-70.8C589.15,88.04,585.18,84.07,580.3,84.07z"/>
			<path class="st0" d="M580.3,57.51c-2.33,0-4.61,0.95-6.26,2.61c-1.64,1.64-2.59,3.92-2.59,6.24c0,2.34,0.95,4.62,2.59,6.26
				c1.64,1.65,3.93,2.59,6.26,2.59c2.32,0,4.62-0.94,6.26-2.59c1.64-1.64,2.59-3.92,2.59-6.26c0-2.33-0.95-4.61-2.59-6.24
				C584.9,58.46,582.62,57.51,580.3,57.51z"/>
		</g>
	</g>
	<path class="st0" d="M762.97,146.09c-3.62-3.62-9.5-3.62-13.13,0c-5.26,5.26-12.25,8.15-19.69,8.15c-4.29,0-8.34-1-11.97-2.74
		l36.53-36.53l8.26-8.26c3.1-3.09,3.53-7.82,1.33-11.4c-0.37-0.61-0.8-1.2-1.33-1.73c-0.01-0.01-0.01-0.01-0.01-0.01
		C754.2,84.82,742.55,80,730.16,80c-25.59,0-46.41,20.82-46.41,46.41c0,25.59,20.82,46.4,46.41,46.4c12.39,0,24.05-4.83,32.81-13.59
		C766.6,155.59,766.6,149.71,762.97,146.09z M730.16,98.56c4.22,0,8.28,0.96,11.98,2.73l-3.01,3.01l-34.07,34.07
		c-1.74-3.63-2.74-7.68-2.74-11.97C702.32,111.05,714.81,98.56,730.16,98.56z"/>
	<path class="st0" d="M511.92,33.36c-25.59,0-46.4,20.82-46.4,46.4h-9.28c-5.12,0-9.28,4.16-9.28,9.28c0,5.13,4.16,9.28,9.28,9.28
		h9.28v64.97c0,5.13,4.15,9.28,9.28,9.28c5.12,0,9.28-4.15,9.28-9.28V98.33h9.28c5.12,0,9.28-4.16,9.28-9.28
		c0-5.13-4.16-9.28-9.28-9.28h-9.28c0-15.35,12.49-27.84,27.84-27.84c5.12,0,9.28-4.15,9.28-9.28
		C521.2,37.52,517.05,33.36,511.92,33.36z"/>
	<path class="st0" d="M574.18,33.36c-25.59,0-46.4,20.82-46.4,46.4h-9.28c-5.12,0-9.28,4.16-9.28,9.28c0,5.13,4.16,9.28,9.28,9.28
		h9.28v64.97c0,5.13,4.15,9.28,9.28,9.28c5.12,0,9.28-4.15,9.28-9.28V98.33h9.28c5.12,0,9.28-4.16,9.28-9.28
		c0-5.13-4.16-9.28-9.28-9.28h-9.28c0-15.35,12.49-27.84,27.84-27.84c5.12,0,9.28-4.15,9.28-9.28
		C583.46,37.52,579.3,33.36,574.18,33.36z"/>
	<g>
		<path class="st2" d="M270.24,156.41c-16.67,0-30.24-13.57-30.24-30.24h5.4c0,13.69,11.14,24.84,24.84,24.84
			s24.84-11.14,24.84-24.84h5.4C300.48,142.85,286.91,156.41,270.24,156.41z"/>
	</g>
	<circle class="st0" cx="782.02" cy="163.46" r="9.35"/>
</g>
<g>
	<ellipse class="st1" cx="-308.24" cy="303.1" rx="90.58" ry="90.58"/>
	<g>
		<path class="st2" d="M-308.24,362.13c-32.55,0-59.02-26.48-59.02-59.02h10.55c0,26.73,21.75,48.48,48.48,48.48
			c26.73,0,48.48-21.75,48.48-48.48h10.55C-249.22,335.65-275.69,362.13-308.24,362.13z"/>
	</g>
</g>
<g>
	<path class="st2" d="M-822.96,477.04c-5.51,0-9.97,4.47-9.97,9.97v39.91c0,16.5-13.43,29.93-29.94,29.93
		c-16.48,0-29.9-13.4-29.93-29.87c0-0.02,0-0.04,0-0.05v-39.91c0-5.51-4.47-9.97-9.98-9.97c0,0,0,0,0,0s0,0,0,0
		c-5.51,0-9.98,4.47-9.98,9.97v39.91c0,0.01,0,0.02,0,0.03c-0.01,16.49-13.44,29.9-29.93,29.9c-16.5,0-29.93-13.43-29.93-29.93
		v-39.91c0-5.51-4.47-9.97-9.98-9.97s-9.98,4.47-9.98,9.97v39.91c0,27.5,22.38,49.88,49.88,49.88c16.32,0,30.8-7.92,39.91-20.08
		c9.11,12.16,23.58,20.08,39.91,20.08c27.51,0,49.89-22.38,49.89-49.88v-39.91C-812.99,481.51-817.45,477.04-822.96,477.04z"/>
	<ellipse class="st1" cx="-756.39" cy="526.92" rx="49.88" ry="49.88"/>
	<path class="st2" d="M-649.91,477.04c-27.51,0-49.88,22.38-49.88,49.88v39.91c0,5.51,4.47,9.97,9.98,9.97
		c5.51,0,9.97-4.47,9.97-9.97v-39.91c0-16.5,13.43-29.93,29.93-29.93c5.51,0,9.97-4.47,9.97-9.98
		C-639.94,481.51-644.4,477.04-649.91,477.04z"/>
	<path class="st2" d="M-604.15,521.93l27.86-27.86c3.9-3.9,3.9-10.21,0-14.11c-3.9-3.9-10.21-3.9-14.11,0l-22.87,22.87v-65.7
		c0-5.51-4.47-9.97-9.98-9.97s-9.98,4.47-9.98,9.97v129.7c0,5.51,4.47,9.97,9.98,9.97s9.98-4.47,9.98-9.97v-25.8l32.85,32.85
		c1.94,1.95,4.5,2.92,7.05,2.92s5.11-0.98,7.06-2.92c3.9-3.9,3.9-10.21,0-14.11L-604.15,521.93z"/>
	<path class="st2" d="M-356.94,497c7.99,0,15.51,3.11,21.16,8.76c3.9,3.9,10.21,3.9,14.11,0c3.9-3.9,3.9-10.21,0-14.11
		c-9.42-9.42-21.94-14.61-35.27-14.61c-27.51,0-49.88,22.38-49.88,49.88c0,27.5,22.38,49.88,49.88,49.88
		c13.33,0,25.85-5.19,35.27-14.61c3.9-3.9,3.9-10.21,0-14.11c-3.9-3.9-10.21-3.9-14.11,0c-5.65,5.65-13.17,8.77-21.16,8.77
		c-16.5,0-29.93-13.43-29.93-29.93C-386.87,510.42-373.44,497-356.94,497z"/>
	<g>
		<g>
			<path class="st2" d="M-423.1,481.67c-5.26,0-9.52,4.26-9.52,9.51v76.11c0,5.25,4.26,9.51,9.52,9.51c5.25,0,9.51-4.26,9.51-9.51
				v-76.11C-413.58,485.93-417.85,481.67-423.1,481.67z"/>
			<path class="st2" d="M-423.1,453.12c-2.51,0-4.95,1.02-6.73,2.8c-1.76,1.76-2.79,4.21-2.79,6.71c0,2.52,1.02,4.97,2.79,6.73
				c1.76,1.78,4.22,2.79,6.73,2.79c2.5,0,4.97-1.01,6.72-2.79c1.76-1.76,2.79-4.21,2.79-6.73c0-2.5-1.02-4.95-2.79-6.71
				C-418.15,454.14-420.6,453.12-423.1,453.12z"/>
		</g>
	</g>
	<path class="st2" d="M-226.73,548.33c-3.9-3.9-10.21-3.9-14.11,0c-5.65,5.65-13.17,8.77-21.16,8.77c-4.61,0-8.97-1.08-12.87-2.95
		l39.27-39.26l8.87-8.88c3.33-3.33,3.79-8.41,1.43-12.25c-0.4-0.66-0.86-1.29-1.43-1.86c-0.01-0.01-0.01-0.01-0.01-0.01
		c-9.42-9.41-21.94-14.6-35.26-14.6c-27.51,0-49.88,22.38-49.88,49.88c0,27.5,22.38,49.88,49.88,49.88
		c13.32,0,25.85-5.19,35.27-14.61C-222.84,558.55-222.84,552.23-226.73,548.33z M-262,497.24c4.53,0,8.9,1.03,12.88,2.94l-3.24,3.24
		l-36.62,36.62c-1.87-3.9-2.95-8.26-2.95-12.87C-291.93,510.67-278.5,497.24-262,497.24z"/>
	<path class="st2" d="M-496.6,427.16c-27.51,0-49.88,22.38-49.88,49.88h-9.98c-5.51,0-9.97,4.47-9.97,9.98
		c0,5.51,4.47,9.98,9.97,9.98h9.98v69.83c0,5.51,4.46,9.98,9.97,9.98c5.51,0,9.97-4.47,9.97-9.98V497h9.98
		c5.51,0,9.97-4.47,9.97-9.98c0-5.51-4.47-9.98-9.97-9.98h-9.98c0-16.5,13.43-29.93,29.93-29.93c5.51,0,9.97-4.47,9.97-9.98
		C-486.62,431.63-491.09,427.16-496.6,427.16z"/>
	<path class="st2" d="M-429.67,427.16c-27.51,0-49.88,22.38-49.88,49.88h-9.98c-5.51,0-9.97,4.47-9.97,9.98
		c0,5.51,4.47,9.98,9.97,9.98h9.98v69.83c0,5.51,4.46,9.98,9.97,9.98c5.51,0,9.97-4.47,9.97-9.98V497h9.98
		c5.51,0,9.97-4.47,9.97-9.98c0-5.51-4.47-9.98-9.97-9.98h-9.98c0-16.5,13.43-29.93,29.93-29.93c5.51,0,9.97-4.47,9.97-9.98
		C-419.7,431.63-424.17,427.16-429.67,427.16z"/>
	<g>
		<path class="st2" d="M-756.39,559.43c-17.92,0-32.51-14.58-32.51-32.51h5.81c0,14.72,11.98,26.7,26.7,26.7
			c14.72,0,26.7-11.98,26.7-26.7h5.81C-723.89,544.85-738.47,559.43-756.39,559.43z"/>
	</g>
	<circle class="st2" cx="-206.26" cy="567.01" r="10.05"/>
</g>
</svg>
