<svg id="Capa_1" data-name="Capa 1" xmlns="http://www.w3.org/2000/svg" viewBox="0 0 132.61 314.94"><defs><style>.cls-1{fill:#d8d7ec;}.cls-2{fill:#133148;}.cls-3{fill:#e4eaf6;}</style></defs><path class="cls-1" d="M38.87,22.65C35,16.2,31.4,12.38,28.64,10.15a15.32,15.32,0,0,0-5.05-3l.85,122.65L24.71,169l.08,11.64v.08l.44,83.62v1.62l.18,24.51v2.16c0,5.9,5.2,10.62,11.5,10.58s11.4-4.85,11.36-10.74L47.94,243l-.36-71,.7-.9L61.63,153.8C61.24,76.91,49.28,40.12,38.87,22.65Z"/><path class="cls-2" d="M26.73,181.09a10.83,10.83,0,0,1-1.94-.42v0l.44,83.63V266l.18,24.52v2.16c0,5.89,5.2,10.62,11.5,10.57s11.4-4.84,11.36-10.73L47.94,243l-.36-71C41.15,175.85,33.38,181.76,26.73,181.09Z"/><path class="cls-3" d="M39.17,207.91a4.34,4.34,0,0,0-3.34-2c-.11,0-.22,0-.33,0A4.3,4.3,0,0,0,33,213.7c.07.05.16.07.23.12A4.38,4.38,0,0,0,34.29,215a4.26,4.26,0,0,0,2.57.85,4.33,4.33,0,0,0,4.29-4.35A4.26,4.26,0,0,0,39.17,207.91Z"/><path class="cls-3" d="M39.38,257.94A4.33,4.33,0,0,0,36,256c-.12,0-.23,0-.34,0a4.33,4.33,0,0,0-4.29,4.35,4.25,4.25,0,0,0,1.79,3.44,2.36,2.36,0,0,0,.23.13,4.29,4.29,0,0,0,7.93-2.35A4.28,4.28,0,0,0,39.38,257.94Z"/><path class="cls-1" d="M76.74,19.47a6.73,6.73,0,0,1,5.57-4.19L77.58,85.67a3.25,3.25,0,1,0,6.49.18L86,17.69l.2,0a3.11,3.11,0,0,1,3-2.25,3.15,3.15,0,0,1,3.06,3.23L92,26.93c0,.07,0,.12,0,.19L90.36,86a3.25,3.25,0,1,0,6.49.18l1.87-67.39h0a3.11,3.11,0,0,1,6.14-.59H105l0,.79a.09.09,0,0,1,0,0l-.22,8.22v0l-1.64,59.06a3.25,3.25,0,0,0,6.49.18L108.8,16a6.74,6.74,0,0,1,5.34,4.5c1,4.07,6.32,40.42,5.53,62.91-.21,5.92-.84,10.89-2.09,14-6,15.16-12.9,13.11-13.23,17.75s-.88,33.44-.88,33.44l-.42.19h.18l-3.1,113.69-.73,26.12-.05,2.17c-.17,5.88-5.42,10.51-11.73,10.32s-11.28-5.07-11.13-11L80.38,148s.28-8.54.58-18.5c.38-12.64.33-12.35.3-14.94-.06-4.65-7.07-3-12.22-18.46-2.75-8.27-.8-28.15,1.85-45.64C73.19,35.25,76,21.83,76.74,19.47Z"/><path class="cls-2" d="M89.74,148.44l1.2.06c1.39.06,2.78.1,4.17.13l1.52.05c1.85,0,3.7,0,5.55,0L99.09,262.39l-.73,26.12-.06,2.16c-.16,5.89-5.41,10.51-11.73,10.33s-11.28-5.08-11.12-11l3.89-142.17C82.8,148.07,86.27,148.27,89.74,148.44Z"/><path class="cls-3" d="M86.56,195.92a4.3,4.3,0,0,1,3.38-1.9l.33,0a4.31,4.31,0,0,1,2.35,7.85,1.75,1.75,0,0,1-.24.11,4.09,4.09,0,0,1-1.09,1.14,4.3,4.3,0,1,1-4.73-7.17Z"/><path class="cls-3" d="M85.24,247.27a4.36,4.36,0,0,1,3.38-1.91c.11,0,.22,0,.34,0a4.3,4.3,0,0,1,2.34,7.84c-.07,0-.16.07-.24.12a4.29,4.29,0,0,1-7.88-2.51A4.29,4.29,0,0,1,85.24,247.27Z"/></svg>