<?xml version="1.0" encoding="utf-8"?>
<!-- Generator: Adobe Illustrator 24.3.0, SVG Export Plug-In . SVG Version: 6.00 Build 0)  -->
<svg version="1.1" id="Capa_1" xmlns="http://www.w3.org/2000/svg" xmlns:xlink="http://www.w3.org/1999/xlink" x="0px" y="0px"
	 viewBox="0 0 305.72 254.17" style="enable-background:new 0 0 305.72 254.17;" xml:space="preserve">
<style type="text/css">
	.st0{fill:#34B089;}
	.st1{fill:#FBCB00;}
	.st2{fill:#FFFFFF;}
	.st3{fill:none;stroke:#FFFFFF;stroke-width:3;stroke-miterlimit:10;}
	.st4{fill:#133148;}
	.st5{fill:#D8D7EC;}
	.st6{fill:#E4EAF6;}
	.st7{fill:#EA5D60;}
	.st8{fill:#FFE723;}
	.st9{fill:#221E20;}
</style>
<g>
	<rect x="46.88" y="83.08" class="st0" width="215.07" height="155.87"/>
	<rect x="46.88" y="22.08" class="st1" width="215.07" height="60.89"/>
	<g>
		<rect x="119.02" y="95.93" class="st2" width="17.4" height="17.4"/>
		<rect x="145.81" y="95.93" class="st2" width="17.4" height="17.4"/>
		<rect x="172.61" y="95.93" class="st2" width="17.4" height="17.4"/>
		<rect x="199.4" y="95.93" class="st2" width="17.4" height="17.4"/>
		<rect x="226.2" y="95.93" class="st2" width="17.4" height="17.4"/>
		<rect x="119.02" y="124.12" class="st2" width="17.4" height="17.4"/>
		<rect x="145.81" y="124.12" class="st2" width="17.4" height="17.4"/>
		<rect x="65.23" y="124.12" class="st2" width="17.4" height="17.4"/>
		<rect x="92.02" y="124.12" class="st2" width="17.4" height="17.4"/>
		<rect x="65.23" y="152.32" class="st2" width="17.4" height="17.4"/>
		<rect x="92.02" y="152.32" class="st2" width="17.4" height="17.4"/>
		<rect x="65.23" y="180.52" class="st2" width="17.4" height="17.4"/>
		<rect x="92.02" y="180.52" class="st2" width="17.4" height="17.4"/>
		<rect x="65.23" y="208.71" class="st2" width="17.4" height="17.4"/>
		<rect x="92.02" y="208.71" class="st2" width="17.4" height="17.4"/>
		<rect x="172.61" y="124.12" class="st2" width="17.4" height="17.4"/>
		<rect x="199.4" y="124.12" class="st2" width="17.4" height="17.4"/>
		<rect x="226.2" y="124.12" class="st2" width="17.4" height="17.4"/>
		<rect x="119.02" y="152.32" class="st2" width="17.4" height="17.4"/>
		<rect x="145.81" y="152.32" class="st2" width="17.4" height="17.4"/>
		<rect x="172.61" y="152.32" class="st2" width="17.4" height="17.4"/>
		<rect x="199.4" y="152.32" class="st2" width="17.4" height="17.4"/>
		<rect x="226.2" y="152.32" class="st2" width="17.4" height="17.4"/>
		<rect x="119.02" y="180.52" class="st2" width="17.4" height="17.4"/>
		<rect x="145.81" y="180.52" class="st2" width="17.4" height="17.4"/>
		<rect x="172.61" y="180.52" class="st2" width="17.4" height="17.4"/>
		<rect x="199.4" y="180.52" class="st2" width="17.4" height="17.4"/>
		<rect x="226.2" y="180.52" class="st2" width="17.4" height="17.4"/>
		<rect x="119.02" y="208.71" class="st2" width="17.4" height="17.4"/>
		<rect x="145.81" y="208.71" class="st2" width="17.4" height="17.4"/>
		<rect x="172.61" y="208.71" class="st2" width="17.4" height="17.4"/>
		<rect x="199.4" y="208.71" class="st2" width="17.4" height="17.4"/>
		<rect x="226.2" y="208.71" class="st2" width="17.4" height="17.4"/>
	</g>
	<g>
		<circle class="st3" cx="52.79" cy="32.23" r="4.8"/>
		<circle class="st3" cx="77.39" cy="32.23" r="4.8"/>
		<circle class="st3" cx="101.98" cy="32.23" r="4.8"/>
		<circle class="st3" cx="126.58" cy="32.23" r="4.8"/>
		<circle class="st3" cx="151.17" cy="32.23" r="4.8"/>
		<circle class="st3" cx="175.77" cy="32.23" r="4.8"/>
		<circle class="st3" cx="200.37" cy="32.23" r="4.8"/>
		<circle class="st3" cx="224.96" cy="32.23" r="4.8"/>
		<circle class="st3" cx="249.56" cy="32.23" r="4.8"/>
		<g>
			<g>
				<path class="st4" d="M52.09,31.84c-4.58,0-8.31-3.73-8.31-8.31s3.73-8.31,8.31-8.31s8.31,3.73,8.31,8.31h-1.17
					c0-3.93-3.2-7.14-7.14-7.14c-3.94,0-7.14,3.2-7.14,7.14s3.2,7.14,7.14,7.14V31.84z"/>
			</g>
		</g>
		<g>
			<g>
				<path class="st4" d="M76.88,31.84c-4.58,0-8.31-3.73-8.31-8.31s3.73-8.31,8.31-8.31c4.58,0,8.31,3.73,8.31,8.31h-1.17
					c0-3.93-3.2-7.14-7.14-7.14c-3.94,0-7.14,3.2-7.14,7.14s3.2,7.14,7.14,7.14V31.84z"/>
			</g>
		</g>
		<g>
			<g>
				<path class="st4" d="M101.68,31.84c-4.58,0-8.31-3.73-8.31-8.31s3.73-8.31,8.31-8.31s8.31,3.73,8.31,8.31h-1.17
					c0-3.93-3.2-7.14-7.14-7.14c-3.94,0-7.14,3.2-7.14,7.14s3.2,7.14,7.14,7.14V31.84z"/>
			</g>
		</g>
		<g>
			<g>
				<path class="st4" d="M126.47,31.84c-4.58,0-8.31-3.73-8.31-8.31s3.73-8.31,8.31-8.31s8.31,3.73,8.31,8.31h-1.17
					c0-3.93-3.2-7.14-7.14-7.14c-3.94,0-7.14,3.2-7.14,7.14s3.2,7.14,7.14,7.14V31.84z"/>
			</g>
		</g>
		<g>
			<g>
				<path class="st4" d="M151.27,31.84c-4.58,0-8.31-3.73-8.31-8.31s3.73-8.31,8.31-8.31c4.58,0,8.31,3.73,8.31,8.31h-1.17
					c0-3.93-3.2-7.14-7.14-7.14c-3.94,0-7.14,3.2-7.14,7.14s3.2,7.14,7.14,7.14V31.84z"/>
			</g>
		</g>
		<g>
			<g>
				<path class="st4" d="M176.07,31.84c-4.58,0-8.31-3.73-8.31-8.31s3.73-8.31,8.31-8.31c4.58,0,8.31,3.73,8.31,8.31h-1.17
					c0-3.93-3.2-7.14-7.14-7.14c-3.94,0-7.14,3.2-7.14,7.14s3.2,7.14,7.14,7.14V31.84z"/>
			</g>
		</g>
		<g>
			<g>
				<path class="st4" d="M200.86,31.84c-4.58,0-8.31-3.73-8.31-8.31s3.73-8.31,8.31-8.31c4.58,0,8.31,3.73,8.31,8.31H208
					c0-3.93-3.2-7.14-7.14-7.14c-3.94,0-7.14,3.2-7.14,7.14s3.2,7.14,7.14,7.14V31.84z"/>
			</g>
		</g>
		<g>
			<g>
				<path class="st4" d="M225.66,31.84c-4.58,0-8.31-3.73-8.31-8.31s3.73-8.31,8.31-8.31c4.58,0,8.31,3.73,8.31,8.31h-1.17
					c0-3.93-3.2-7.14-7.14-7.14c-3.94,0-7.14,3.2-7.14,7.14s3.2,7.14,7.14,7.14V31.84z"/>
			</g>
		</g>
		<g>
			<g>
				<path class="st4" d="M250.45,31.84c-4.58,0-8.31-3.73-8.31-8.31s3.73-8.31,8.31-8.31c4.58,0,8.31,3.73,8.31,8.31h-1.17
					c0-3.93-3.2-7.14-7.14-7.14c-3.94,0-7.14,3.2-7.14,7.14s3.2,7.14,7.14,7.14V31.84z"/>
			</g>
		</g>
	</g>
</g>
</svg>
