<?xml version="1.0" encoding="utf-8"?>
<!-- Generator: Adobe Illustrator 24.3.0, SVG Export Plug-In . SVG Version: 6.00 Build 0)  -->
<svg version="1.1" id="Capa_1" xmlns="http://www.w3.org/2000/svg" xmlns:xlink="http://www.w3.org/1999/xlink" x="0px" y="0px"
	 viewBox="0 0 247.51 242.94" style="enable-background:new 0 0 247.51 242.94;" xml:space="preserve">
<style type="text/css">
	.st0{fill:#34B089;}
	.st1{fill:#FBCB00;}
	.st2{fill:#FFFFFF;}
	.st3{fill:none;stroke:#FFFFFF;stroke-width:3;stroke-miterlimit:10;}
	.st4{fill:#133148;}
	.st5{fill:#D8D7EC;}
	.st6{fill:#E4EAF6;}
	.st7{fill:#EA5D60;}
	.st8{fill:#FFE723;}
	.st9{fill:#221E20;}
</style>
<g>
	<g>
		<g>
			<g>
				<g>
					<rect x="21.97" y="89.55" class="st2" width="203.56" height="17.24"/>
				</g>
			</g>
			<g>
				<g>
					<rect x="29.71" y="92.63" class="st8" width="193.38" height="16.38"/>
				</g>
			</g>
			<g>
				<g>
					<path class="st4" d="M225.54,108.76H21.97c-1.09,0-1.97-0.88-1.97-1.97V89.55c0-1.09,0.88-1.97,1.97-1.97h203.56
						c1.09,0,1.97,0.88,1.97,1.97v17.24C227.5,107.88,226.62,108.76,225.54,108.76z M23.94,104.83h199.63v-13.3H23.94V104.83z"/>
				</g>
			</g>
		</g>
		<g>
			<g>
				<g>
					<rect x="173.11" y="106.79" class="st2" width="52.42" height="31.53"/>
				</g>
			</g>
			<g>
				<g>
					<rect x="177.07" y="110.23" class="st8" width="49.8" height="29.95"/>
				</g>
			</g>
			<g>
				<g>
					<path class="st9" d="M225.54,140.29h-52.42c-1.09,0-1.97-0.88-1.97-1.97v-31.53c0-1.09,0.88-1.97,1.97-1.97h52.42
						c1.09,0,1.97,0.88,1.97,1.97v31.53C227.5,139.41,226.62,140.29,225.54,140.29z M175.08,136.36h48.49v-27.6h-48.49V136.36z"/>
				</g>
			</g>
		</g>
		<g>
			<g>
				<path class="st9" d="M225.54,225.56c-1.09,0-1.97-0.88-1.97-1.97v-53.76c0-1.09,0.88-1.97,1.97-1.97c1.09,0,1.97,0.88,1.97,1.97
					v53.76C227.5,224.68,226.62,225.56,225.54,225.56z"/>
			</g>
		</g>
		<g>
			<g>
				<path class="st4" d="M21.97,224.89c-1.09,0-1.97-0.88-1.97-1.97V106.79c0-1.09,0.88-1.97,1.97-1.97c1.09,0,1.97,0.88,1.97,1.97
					v116.13C23.94,224.01,23.06,224.89,21.97,224.89z"/>
			</g>
		</g>
		<g>
			<g>
				<g>
					<rect x="120.69" y="106.79" class="st2" width="52.42" height="31.53"/>
				</g>
			</g>
			<g>
				<g>
					<rect x="124.65" y="110.23" class="st8" width="49.8" height="29.95"/>
				</g>
			</g>
			<g>
				<g>
					<path class="st4" d="M173.11,140.29h-52.42c-1.09,0-1.97-0.88-1.97-1.97v-31.53c0-1.09,0.88-1.97,1.97-1.97h52.42
						c1.09,0,1.97,0.88,1.97,1.97v31.53C175.08,139.41,174.2,140.29,173.11,140.29z M122.66,136.36h48.49v-27.6h-48.49V136.36z"/>
				</g>
			</g>
		</g>
		<g>
			<g>
				<g>
					<rect x="173.11" y="138.32" class="st2" width="52.42" height="31.5"/>
				</g>
			</g>
			<g>
				<g>
					<rect x="177.07" y="141.76" class="st8" width="49.8" height="29.93"/>
				</g>
			</g>
			<g>
				<g>
					<path class="st4" d="M225.54,171.79h-52.42c-1.09,0-1.97-0.88-1.97-1.97v-31.5c0-1.09,0.88-1.97,1.97-1.97h52.42
						c1.09,0,1.97,0.88,1.97,1.97v31.5C227.5,170.91,226.62,171.79,225.54,171.79z M175.08,167.86h48.49v-27.57h-48.49V167.86z"/>
				</g>
			</g>
		</g>
		<g>
			<g>
				<g>
					<rect x="120.69" y="138.32" class="st2" width="52.42" height="31.5"/>
				</g>
			</g>
			<g>
				<g>
					<rect x="124.65" y="141.76" class="st8" width="49.8" height="29.93"/>
				</g>
			</g>
			<g>
				<g>
					<path class="st4" d="M173.11,171.79h-52.42c-1.09,0-1.97-0.88-1.97-1.97v-31.5c0-1.09,0.88-1.97,1.97-1.97h52.42
						c1.09,0,1.97,0.88,1.97,1.97v31.5C175.08,170.91,174.2,171.79,173.11,171.79z M122.66,167.86h48.49v-27.57h-48.49V167.86z"/>
				</g>
			</g>
		</g>
		<g>
			<g>
				<path class="st4" d="M151.71,121.03h-9.62c-1.09,0-1.97-0.88-1.97-1.97c0-1.09,0.88-1.97,1.97-1.97h9.62
					c1.09,0,1.97,0.88,1.97,1.97C153.68,120.15,152.8,121.03,151.71,121.03z"/>
			</g>
		</g>
		<g>
			<g>
				<path class="st4" d="M204.14,121.03h-9.62c-1.09,0-1.97-0.88-1.97-1.97c0-1.09,0.88-1.97,1.97-1.97h9.62
					c1.09,0,1.97,0.88,1.97,1.97C206.11,120.15,205.23,121.03,204.14,121.03z"/>
			</g>
		</g>
		<g>
			<g>
				<path class="st4" d="M151.71,155.88h-9.62c-1.09,0-1.97-0.88-1.97-1.97c0-1.09,0.88-1.97,1.97-1.97h9.62
					c1.09,0,1.97,0.88,1.97,1.97C153.68,155,152.8,155.88,151.71,155.88z"/>
			</g>
		</g>
		<g>
			<g>
				<path class="st4" d="M204.14,155.88h-9.62c-1.09,0-1.97-0.88-1.97-1.97c0-1.09,0.88-1.97,1.97-1.97h9.62
					c1.09,0,1.97,0.88,1.97,1.97C206.11,155,205.23,155.88,204.14,155.88z"/>
			</g>
		</g>
		<g>
			<g>
				<g>
					<path class="st2" d="M143.02,19.35h69.82c2.28,0,4.15,1.86,4.15,4.14v43.16c0,2.28-1.88,4.14-4.15,4.14h-69.82
						c-2.28,0-4.16-1.86-4.16-4.14V23.49C138.86,21.21,140.73,19.35,143.02,19.35z"/>
				</g>
			</g>
			<g>
				<g>
					<path class="st8" d="M147.41,23.28h66.33c2.16,0,3.95,1.77,3.95,3.94v41.01c0,2.17-1.78,3.94-3.95,3.94h-66.33
						c-2.17,0-3.95-1.77-3.95-3.94V27.22C143.46,25.05,145.24,23.28,147.41,23.28z"/>
				</g>
			</g>
			<g>
				<g>
					<path class="st4" d="M212.84,72.76h-69.82c-3.38,0-6.12-2.74-6.12-6.11V23.49c0-3.37,2.75-6.11,6.12-6.11h69.82
						c3.38,0,6.12,2.74,6.12,6.11v43.16C218.96,70.02,216.22,72.76,212.84,72.76z M143.02,21.31c-1.21,0-2.19,0.98-2.19,2.18v43.16
						c0,1.2,0.98,2.17,2.19,2.17h69.82c1.21,0,2.19-0.98,2.19-2.17V23.49c0-1.2-0.98-2.18-2.19-2.18H143.02z"/>
				</g>
			</g>
		</g>
		<g>
			<g>
				<g>
					<rect x="150.26" y="28.51" class="st2" width="55.34" height="33.13"/>
				</g>
			</g>
			<g>
				<g>
					<path class="st4" d="M205.6,63.6h-55.34c-1.09,0-1.97-0.88-1.97-1.97V28.51c0-1.09,0.88-1.97,1.97-1.97h55.34
						c1.09,0,1.97,0.88,1.97,1.97v33.13C207.57,62.72,206.69,63.6,205.6,63.6z M152.22,59.67h51.41V30.48h-51.41V59.67z"/>
				</g>
			</g>
		</g>
		<g>
			<g>
				<g>
					<polygon class="st2" points="173.29,70.8 182.57,70.8 191.07,89.55 164.78,89.55 					"/>
				</g>
			</g>
			<g>
				<g>
					<polygon class="st8" points="176.16,73.91 184.98,73.91 193.06,91.73 168.08,91.73 					"/>
				</g>
			</g>
			<g>
				<g>
					<path class="st4" d="M191.12,91.52c-0.01,0-0.03,0-0.05,0h-26.29c-0.67,0-1.29-0.34-1.65-0.9c-0.36-0.56-0.41-1.27-0.14-1.88
						l8.51-18.76c0.32-0.7,1.02-1.16,1.79-1.16h9.28c0.77,0,1.47,0.45,1.79,1.16l8.33,18.38c0.25,0.33,0.4,0.74,0.4,1.19
						C193.09,90.64,192.21,91.52,191.12,91.52z M167.83,87.59h20.18l-6.72-14.82h-6.75L167.83,87.59z"/>
				</g>
			</g>
		</g>
	</g>
</g>
</svg>
