<svg id="Capa_1" data-name="Capa 1" xmlns="http://www.w3.org/2000/svg" viewBox="0 0 344.68 277.28"><defs><style>.cls-1{fill:#d8d7ec;}.cls-2{fill:#133148;}.cls-3{fill:#fff;}.cls-4{fill:#ea5d60;}</style></defs><path class="cls-1" d="M140.37,214.2V70.87h170V214.2a25,25,0,0,1-25,25h-170A25,25,0,0,0,140.37,214.2Z"/><path class="cls-2" d="M285.4,242.08h-170v-5.85a22,22,0,0,0,22-22V68H313.29V214.2A27.92,27.92,0,0,1,285.4,242.08Zm-152.91-5.85H285.4a22.05,22.05,0,0,0,22-22V73.8H143.29V214.2A27.85,27.85,0,0,1,132.49,236.23Z"/><path class="cls-1" d="M260.45,214.2V55.28h-170V214.2a25,25,0,0,0,25,25h170A25,25,0,0,1,260.45,214.2Z"/><path class="cls-2" d="M285.4,242.08h-170A27.91,27.91,0,0,1,87.54,214.2V52.35H263.38V214.2a22,22,0,0,0,22,22ZM93.39,58.2v156a22.05,22.05,0,0,0,22,22H268.33a27.85,27.85,0,0,1-10.8-22V58.2Z"/><path class="cls-3" d="M243.3,214.2V38.12H64L34.32,68.23v146a25,25,0,0,0,25,25h209A25,25,0,0,1,243.3,214.2Z"/><path class="cls-2" d="M268.25,242.08h-209A27.92,27.92,0,0,1,31.39,214.2v-146a3,3,0,0,1,.85-2.06L62,36.07A2.94,2.94,0,0,1,64,35.2H243.3a2.93,2.93,0,0,1,2.93,2.92V214.2a22,22,0,0,0,22,22,2.93,2.93,0,1,1,0,5.85ZM37.25,69.43V214.2a22,22,0,0,0,22,22H251.18a27.86,27.86,0,0,1-10.81-22V41.05H65.26Z"/><polygon class="cls-3" points="34.32 68.23 64.04 68.23 64.04 38.12 34.32 68.23"/><path class="cls-2" d="M64,71.15H34.32a2.92,2.92,0,0,1-2.08-5L62,36.07a2.93,2.93,0,0,1,5,2V68.23A2.92,2.92,0,0,1,64,71.15ZM41.32,65.3H61.11v-20Z"/><path class="cls-4" d="M102.36,91.33a1.56,1.56,0,0,1-1.56-1.56V59.34a1.56,1.56,0,0,1,1.56-1.56h2a3,3,0,0,1,2.45,1.28l10.84,15.69a92.09,92.09,0,0,1,6.58,10.9l.1-.05c-.43-4.48-.54-8.56-.54-13.79V59.34a1.56,1.56,0,0,1,1.56-1.56h1.33a1.56,1.56,0,0,1,1.56,1.56V89.77a1.56,1.56,0,0,1-1.56,1.56h-1.66A3,3,0,0,1,122.62,90L111.88,74.3A102.73,102.73,0,0,1,105,63.1l-.17.06c.27,4.22.38,8.26.38,13.83V89.77a1.55,1.55,0,0,1-1.55,1.56Z"/><path class="cls-4" d="M155.49,74a1.56,1.56,0,0,1-1.56,1.56H141.26V87.69h14.3a1.56,1.56,0,0,1,1.56,1.56v.52a1.56,1.56,0,0,1-1.56,1.56H138.09a1.56,1.56,0,0,1-1.55-1.56V59.34a1.56,1.56,0,0,1,1.55-1.56h16.66a1.56,1.56,0,0,1,1.56,1.56v.52a1.55,1.55,0,0,1-1.56,1.55H141.26V72h12.67a1.56,1.56,0,0,1,1.56,1.56Z"/><path class="cls-4" d="M171.28,91.33a2.06,2.06,0,0,1-2-1.51l-8.45-30.54a1.17,1.17,0,0,1,1.14-1.5h1.88a2,2,0,0,1,1.95,1.51l4,15.46c1.09,4.18,2.07,8.36,2.72,11.6h.11c.59-3.34,1.74-7.32,3-11.65L180,59.28a2.08,2.08,0,0,1,2-1.5h1.82a2,2,0,0,1,2,1.51l4.06,15.51c1,4,2,8,2.55,11.5h.11c.76-3.69,1.79-7.42,2.93-11.6l4.41-15.42a2.06,2.06,0,0,1,2-1.5h1.71a1.15,1.15,0,0,1,1.1,1.49l-9.45,30.57a2.13,2.13,0,0,1-2,1.49h-1.83a2,2,0,0,1-2-1.51l-4.21-16a92.23,92.23,0,0,1-2.39-11h-.11a96.61,96.61,0,0,1-2.83,11l-4.77,16a2.09,2.09,0,0,1-2,1.5Z"/><path class="cls-4" d="M208.55,87.53a1.32,1.32,0,0,1,1.78-.83,18.14,18.14,0,0,0,7.18,1.54c4.83,0,7.66-2.34,7.66-5.72,0-3.14-2-4.93-6.9-6.68-6-1.93-9.67-4.77-9.67-9.5,0-5.23,4.73-9.11,11.84-9.11a20,20,0,0,1,6.67,1,1.59,1.59,0,0,1,.88,2.08l-.22.6a1.53,1.53,0,0,1-2,.83,16.19,16.19,0,0,0-5.48-1c-5,0-6.9,2.73-6.9,5,0,3.14,2.23,4.68,7.28,6.47,6.19,2.19,9.34,4.93,9.34,9.86,0,5.18-4.18,9.65-12.82,9.65a22.6,22.6,0,0,1-8.05-1.49,1.67,1.67,0,0,1-.8-2.13Z"/><path class="cls-4" d="M229.74,51.23a2,2,0,0,1-2,2H103a2,2,0,0,1,0-3.9H227.79A2,2,0,0,1,229.74,51.23Z"/><path class="cls-4" d="M229.74,98a2,2,0,0,1-2,2H103a2,2,0,1,1,0-3.9H227.79A2,2,0,0,1,229.74,98Z"/><rect class="cls-1" x="51.55" y="110.62" width="81.49" height="79.54"/><path class="cls-2" d="M136,193.08H48.63V107.69H136Zm-81.49-5.85h75.64V113.55H54.48Z"/><rect class="cls-4" x="149.03" y="110.62" width="83.05" height="6.82"/><rect class="cls-4" x="149.03" y="126.21" width="83.05" height="6.82"/><rect class="cls-4" x="149.03" y="141.81" width="83.05" height="6.82"/><rect class="cls-4" x="149.03" y="157.4" width="83.05" height="6.83"/><rect class="cls-4" x="149.03" y="173" width="83.05" height="6.82"/><rect class="cls-4" x="149.03" y="188.6" width="83.05" height="6.82"/><rect class="cls-4" x="149.03" y="204.19" width="83.05" height="6.82"/></svg>