<?xml version="1.0" encoding="utf-8"?>
<!-- Generator: Adobe Illustrator 24.3.0, SVG Export Plug-In . SVG Version: 6.00 Build 0)  -->
<svg version="1.1" id="Capa_1" xmlns="http://www.w3.org/2000/svg" xmlns:xlink="http://www.w3.org/1999/xlink" x="0px" y="0px"
	 viewBox="0 0 247.51 242.94" style="enable-background:new 0 0 247.51 242.94;" xml:space="preserve">
<style type="text/css">
	.st0{fill:#34B089;}
	.st1{fill:#FBCB00;}
	.st2{fill:#FFFFFF;}
	.st3{fill:none;stroke:#FFFFFF;stroke-width:3;stroke-miterlimit:10;}
	.st4{fill:#133148;}
	.st5{fill:#D8D7EC;}
	.st6{fill:#E4EAF6;}
	.st7{fill:#EA5D60;}
	.st8{fill:#FFE723;}
	.st9{fill:#221E20;}
</style>
<g>
	<g>
		<path class="st0" d="M215.13,228.7l-38.41-4.35c-3.56,0.62-7.14,0.93-10.67,0.93c-34.08,0-61.81-27.73-61.81-61.81
			s27.73-61.81,61.81-61.81s61.81,27.73,61.81,61.81c0,11.78-3.32,23.2-9.62,33.11L215.13,228.7z M176.46,216.46l31.67,3.59
			l2.54-26.13l0.53-0.81c5.8-8.82,8.87-19.07,8.87-29.64c0-29.78-24.23-54.01-54.01-54.01c-29.78,0-54.01,24.23-54.01,54.01
			s24.23,54.01,54.01,54.01c3.24,0,6.55-0.31,9.84-0.91L176.46,216.46z"/>
	</g>
	<path class="st0" d="M102.96,14.24c-46.02,0-83.32,37.3-83.32,83.32c0,16.9,5.04,32.61,13.69,45.74l4.06,41.89l50.4-5.71
		c4.92,0.91,9.99,1.4,15.17,1.4c46.02,0,83.32-37.3,83.32-83.32C186.28,51.54,148.98,14.24,102.96,14.24z"/>
	<g>
		<path class="st2" d="M119.71,68.9c4.16,3.61,6.24,8.71,6.24,15.29c0,6.06-1.98,10.79-5.95,14.17c-3.97,3.39-9.21,5.12-15.72,5.18
			l-0.48,7.25H89.28L88.8,92.79h5.8c4.97,0,8.76-0.61,11.37-1.84c2.61-1.22,3.92-3.45,3.92-6.67c0-2.26-0.61-4.03-1.84-5.32
			s-2.94-1.94-5.13-1.94c-2.32,0-4.13,0.66-5.42,1.98c-1.29,1.32-1.94,3.11-1.94,5.37H79.99c-0.13-3.93,0.69-7.48,2.47-10.64
			c1.78-3.16,4.42-5.66,7.94-7.5c3.51-1.84,7.75-2.76,12.72-2.76C110.01,63.48,115.55,65.29,119.71,68.9z M89.62,133.38
			c-1.84-1.71-2.76-3.82-2.76-6.34c0-2.58,0.92-4.74,2.76-6.48c1.84-1.74,4.21-2.61,7.11-2.61c2.84,0,5.18,0.87,7.02,2.61
			c1.84,1.74,2.76,3.9,2.76,6.48c0,2.52-0.92,4.63-2.76,6.34c-1.84,1.71-4.18,2.56-7.02,2.56
			C93.83,135.94,91.45,135.09,89.62,133.38z"/>
	</g>
</g>
</svg>
