<svg xmlns="http://www.w3.org/2000/svg" viewBox="0 0 182.3 277.28"><defs><style>.cls-1{isolation:isolate;}.cls-2{fill:#fbcb00;}.cls-3{fill:#fff;}.cls-4{mix-blend-mode:soft-light;}.cls-5{fill:#133148;}</style></defs><g class="cls-1"><g id="Capa_1" data-name="Capa 1"><circle class="cls-2" cx="93.38" cy="239.14" r="14.57"/><path class="cls-2" d="M162.72,94.84c0,30.46-42.67,86-62,109.62a12,12,0,0,1-18.59,0c-19.31-23.59-62-79.16-62-109.62a71.27,71.27,0,0,1,142.54,0Z"/><circle class="cls-3" cx="91.45" cy="94.84" r="39.75"/><circle class="cls-2" cx="91.45" cy="239.14" r="14.57"/><g class="cls-4"><path class="cls-3" d="M91.13,175.2c4.52-29.78,24.19-39.31,20.81-67.43-3.89-32.42-32.6-41.06-33.29-69.92a45.61,45.61,0,0,1,1.71-13.42A71.28,71.28,0,0,0,20.18,94.84c0,30.46,42.66,86,62,109.62a12,12,0,0,0,11.12,4.27A81.61,81.61,0,0,1,91.13,175.2Z"/></g><path class="cls-5" d="M67.15,94a3.13,3.13,0,0,0,3.14-3.14H64A3.13,3.13,0,0,0,67.15,94Z"/><polygon class="cls-5" points="116.78 71.12 67.18 71.12 64.02 88.58 120.2 88.58 116.78 71.12"/><path class="cls-5" d="M74.29,94a3.14,3.14,0,0,0,3.14-3.14H71.16A3.13,3.13,0,0,0,74.29,94Z"/><path class="cls-5" d="M81.43,94a3.14,3.14,0,0,0,3.14-3.14H78.29A3.14,3.14,0,0,0,81.43,94Z"/><path class="cls-5" d="M88.57,94a3.14,3.14,0,0,0,3.14-3.14H85.43A3.14,3.14,0,0,0,88.57,94Z"/><path class="cls-5" d="M117.12,94A3.14,3.14,0,0,1,114,90.81h6.28A3.14,3.14,0,0,1,117.12,94Z"/><path class="cls-5" d="M110,94a3.14,3.14,0,0,1-3.14-3.14h6.28A3.14,3.14,0,0,1,110,94Z"/><path class="cls-5" d="M102.84,94a3.13,3.13,0,0,1-3.13-3.14H106A3.14,3.14,0,0,1,102.84,94Z"/><path class="cls-5" d="M95.7,94a3.13,3.13,0,0,1-3.13-3.14h6.27A3.13,3.13,0,0,1,95.7,94Z"/><path class="cls-5" d="M67.17,95.16v23.21h49.94V95.16ZM109.81,113H74.46V100.12h35.35Z"/></g></g></svg>