<?xml version="1.0" encoding="utf-8"?>
<!-- Generator: Adobe Illustrator 24.3.0, SVG Export Plug-In . SVG Version: 6.00 Build 0)  -->
<svg version="1.1" id="Capa_1" xmlns="http://www.w3.org/2000/svg" xmlns:xlink="http://www.w3.org/1999/xlink" x="0px" y="0px"
	 viewBox="0 0 189.29 206.17" style="enable-background:new 0 0 189.29 206.17;" xml:space="preserve">
<style type="text/css">
	.st0{fill:#133148;}
	.st1{fill:#34B089;}
	.st2{fill:#FFFFFF;}
</style>
<g>
	<path class="st0" d="M208.31-225.08c-5.12,0-9.28,4.15-9.28,9.28v37.12c0,15.35-12.49,27.84-27.85,27.84
		c-15.33,0-27.81-12.46-27.84-27.79c0-0.02,0-0.03,0-0.05v-37.12c0-5.13-4.16-9.28-9.28-9.28c0,0,0,0,0,0s0,0,0,0
		c-5.13,0-9.28,4.15-9.28,9.28v37.12c0,0.01,0,0.02,0,0.03c-0.01,15.34-12.5,27.82-27.84,27.82c-15.35,0-27.84-12.49-27.84-27.84
		v-37.12c0-5.13-4.16-9.28-9.28-9.28c-5.13,0-9.28,4.15-9.28,9.28v37.12c0,25.59,20.82,46.4,46.41,46.4
		c15.19,0,28.65-7.37,37.12-18.68c8.47,11.31,21.94,18.68,37.12,18.68c25.59,0,46.41-20.82,46.41-46.4v-37.12
		C217.59-220.93,213.44-225.08,208.31-225.08z"/>
	<ellipse class="st1" cx="270.24" cy="-178.68" rx="46.41" ry="46.4"/>
	<path class="st0" d="M369.3-225.08c-25.59,0-46.41,20.82-46.41,46.4v37.12c0,5.12,4.16,9.28,9.28,9.28c5.12,0,9.28-4.16,9.28-9.28
		v-37.12c0-15.35,12.49-27.84,27.84-27.84c5.12,0,9.28-4.16,9.28-9.28C378.58-220.93,374.42-225.08,369.3-225.08z"/>
	<path class="st0" d="M411.87-183.32l25.92-25.92c3.62-3.62,3.62-9.5,0-13.13c-3.62-3.63-9.5-3.63-13.13,0l-21.28,21.28v-61.12
		c0-5.12-4.16-9.28-9.28-9.28c-5.13,0-9.28,4.16-9.28,9.28v120.66c0,5.12,4.16,9.28,9.28,9.28c5.13,0,9.28-4.16,9.28-9.28v-24
		l30.56,30.56c1.81,1.81,4.18,2.72,6.56,2.72s4.75-0.91,6.57-2.72c3.62-3.62,3.62-9.5,0-13.13L411.87-183.32z"/>
	<path class="st0" d="M641.84-206.52c7.44,0,14.43,2.9,19.69,8.15c3.62,3.63,9.5,3.63,13.13,0c3.62-3.62,3.62-9.5,0-13.13
		c-8.76-8.76-20.41-13.59-32.81-13.59c-25.59,0-46.41,20.82-46.41,46.41c0,25.59,20.82,46.4,46.41,46.4
		c12.4,0,24.05-4.83,32.81-13.59c3.62-3.62,3.62-9.5,0-13.13c-3.62-3.62-9.5-3.62-13.13,0c-5.26,5.26-12.25,8.15-19.69,8.15
		c-15.35,0-27.84-12.49-27.84-27.84C614-194.03,626.49-206.52,641.84-206.52z"/>
	<g>
		<g>
			<path class="st0" d="M580.3-220.78c-4.89,0-8.85,3.96-8.85,8.85v70.8c0,4.89,3.96,8.85,8.85,8.85c4.89,0,8.85-3.96,8.85-8.85
				v-70.8C589.15-216.82,585.18-220.78,580.3-220.78z"/>
			<path class="st0" d="M580.3-247.34c-2.33,0-4.61,0.95-6.26,2.61c-1.64,1.64-2.59,3.92-2.59,6.24c0,2.34,0.95,4.62,2.59,6.26
				c1.64,1.65,3.93,2.59,6.26,2.59c2.32,0,4.62-0.94,6.26-2.59c1.64-1.64,2.59-3.92,2.59-6.26c0-2.33-0.95-4.61-2.59-6.24
				C584.9-246.39,582.62-247.34,580.3-247.34z"/>
		</g>
	</g>
	<path class="st0" d="M762.97-158.76c-3.62-3.62-9.5-3.62-13.13,0c-5.26,5.26-12.25,8.15-19.69,8.15c-4.29,0-8.34-1-11.97-2.74
		l36.53-36.53l8.26-8.26c3.1-3.09,3.53-7.82,1.33-11.4c-0.37-0.61-0.8-1.2-1.33-1.73c-0.01-0.01-0.01-0.01-0.01-0.01
		c-8.76-8.76-20.41-13.58-32.8-13.58c-25.59,0-46.41,20.82-46.41,46.41c0,25.59,20.82,46.4,46.41,46.4
		c12.39,0,24.05-4.83,32.81-13.59C766.6-149.26,766.6-155.14,762.97-158.76z M730.16-206.29c4.22,0,8.28,0.96,11.98,2.73l-3.01,3.01
		l-34.07,34.07c-1.74-3.63-2.74-7.68-2.74-11.97C702.32-193.8,714.81-206.29,730.16-206.29z"/>
	<path class="st0" d="M511.92-271.49c-25.59,0-46.4,20.82-46.4,46.4h-9.28c-5.12,0-9.28,4.16-9.28,9.28c0,5.13,4.16,9.28,9.28,9.28
		h9.28v64.97c0,5.13,4.15,9.28,9.28,9.28c5.12,0,9.28-4.15,9.28-9.28v-64.97h9.28c5.12,0,9.28-4.16,9.28-9.28
		c0-5.13-4.16-9.28-9.28-9.28h-9.28c0-15.35,12.49-27.84,27.84-27.84c5.12,0,9.28-4.15,9.28-9.28
		C521.2-267.33,517.05-271.49,511.92-271.49z"/>
	<path class="st0" d="M574.18-271.49c-25.59,0-46.4,20.82-46.4,46.4h-9.28c-5.12,0-9.28,4.16-9.28,9.28c0,5.13,4.16,9.28,9.28,9.28
		h9.28v64.97c0,5.13,4.15,9.28,9.28,9.28c5.12,0,9.28-4.15,9.28-9.28v-64.97h9.28c5.12,0,9.28-4.16,9.28-9.28
		c0-5.13-4.16-9.28-9.28-9.28h-9.28c0-15.35,12.49-27.84,27.84-27.84c5.12,0,9.28-4.15,9.28-9.28
		C583.46-267.33,579.3-271.49,574.18-271.49z"/>
	<g>
		<path class="st2" d="M270.24-148.44c-16.67,0-30.24-13.57-30.24-30.24h5.4c0,13.69,11.14,24.84,24.84,24.84
			s24.84-11.14,24.84-24.84h5.4C300.48-162,286.91-148.44,270.24-148.44z"/>
	</g>
	<circle class="st0" cx="782.02" cy="-141.39" r="9.35"/>
</g>
<g>
	<ellipse class="st1" cx="94.65" cy="103.08" rx="90.58" ry="90.58"/>
	<g>
		<path class="st2" d="M94.65,162.11c-32.55,0-59.02-26.48-59.02-59.02h10.55c0,26.73,21.75,48.48,48.48,48.48
			s48.48-21.75,48.48-48.48h10.55C153.67,135.63,127.2,162.11,94.65,162.11z"/>
	</g>
</g>
<g>
	<path class="st2" d="M192.37,305.77c-5.51,0-9.97,4.47-9.97,9.97v39.91c0,16.5-13.43,29.93-29.94,29.93
		c-16.48,0-29.9-13.4-29.93-29.87c0-0.02,0-0.04,0-0.05v-39.91c0-5.51-4.47-9.97-9.98-9.97c0,0,0,0,0,0s0,0,0,0
		c-5.51,0-9.98,4.47-9.98,9.97v39.91c0,0.01,0,0.02,0,0.03c-0.01,16.49-13.44,29.9-29.93,29.9c-16.5,0-29.93-13.43-29.93-29.93
		v-39.91c0-5.51-4.47-9.97-9.98-9.97s-9.98,4.47-9.98,9.97v39.91c0,27.5,22.38,49.88,49.88,49.88c16.32,0,30.8-7.92,39.91-20.08
		c9.11,12.16,23.58,20.08,39.91,20.08c27.51,0,49.89-22.38,49.89-49.88v-39.91C202.35,310.23,197.88,305.77,192.37,305.77z"/>
	<ellipse class="st1" cx="258.94" cy="355.65" rx="49.88" ry="49.88"/>
	<path class="st2" d="M365.43,305.77c-27.51,0-49.88,22.38-49.88,49.88v39.91c0,5.51,4.47,9.97,9.98,9.97
		c5.51,0,9.97-4.47,9.97-9.97v-39.91c0-16.5,13.43-29.93,29.93-29.93c5.51,0,9.97-4.47,9.97-9.98
		C375.4,310.23,370.93,305.77,365.43,305.77z"/>
	<path class="st2" d="M411.18,350.66l27.86-27.86c3.9-3.9,3.9-10.21,0-14.11c-3.9-3.9-10.21-3.9-14.11,0l-22.87,22.87v-65.7
		c0-5.51-4.47-9.97-9.98-9.97c-5.51,0-9.98,4.47-9.98,9.97v129.7c0,5.51,4.47,9.97,9.98,9.97c5.51,0,9.98-4.47,9.98-9.97v-25.8
		l32.85,32.85c1.94,1.95,4.5,2.92,7.05,2.92s5.11-0.98,7.06-2.92c3.9-3.9,3.9-10.21,0-14.11L411.18,350.66z"/>
	<path class="st2" d="M658.4,325.72c7.99,0,15.51,3.11,21.16,8.76c3.9,3.9,10.21,3.9,14.11,0c3.9-3.9,3.9-10.21,0-14.11
		c-9.42-9.42-21.94-14.61-35.27-14.61c-27.51,0-49.88,22.38-49.88,49.88c0,27.5,22.38,49.88,49.88,49.88
		c13.33,0,25.85-5.19,35.27-14.61c3.9-3.9,3.9-10.21,0-14.11c-3.9-3.9-10.21-3.9-14.11,0c-5.65,5.65-13.17,8.77-21.16,8.77
		c-16.5,0-29.93-13.43-29.93-29.93C628.47,339.14,641.89,325.72,658.4,325.72z"/>
	<g>
		<g>
			<path class="st2" d="M592.24,310.39c-5.26,0-9.52,4.26-9.52,9.51v76.11c0,5.25,4.26,9.51,9.52,9.51c5.25,0,9.51-4.26,9.51-9.51
				v-76.11C601.75,314.65,597.49,310.39,592.24,310.39z"/>
			<path class="st2" d="M592.24,281.84c-2.51,0-4.95,1.02-6.73,2.8c-1.76,1.76-2.79,4.21-2.79,6.71c0,2.52,1.02,4.97,2.79,6.73
				c1.76,1.78,4.22,2.79,6.73,2.79c2.5,0,4.97-1.01,6.72-2.79c1.76-1.76,2.79-4.21,2.79-6.73c0-2.5-1.02-4.95-2.79-6.71
				C597.18,282.87,594.74,281.84,592.24,281.84z"/>
		</g>
	</g>
	<path class="st2" d="M788.61,377.06c-3.9-3.9-10.21-3.9-14.11,0c-5.65,5.65-13.17,8.77-21.16,8.77c-4.61,0-8.97-1.08-12.87-2.95
		l39.27-39.26l8.87-8.88c3.33-3.33,3.79-8.41,1.43-12.25c-0.4-0.66-0.86-1.29-1.43-1.86c-0.01-0.01-0.01-0.01-0.01-0.01
		c-9.42-9.41-21.94-14.6-35.26-14.6c-27.51,0-49.88,22.38-49.88,49.88c0,27.5,22.38,49.88,49.88,49.88
		c13.32,0,25.85-5.19,35.27-14.61C792.5,387.27,792.5,380.95,788.61,377.06z M753.34,325.97c4.53,0,8.9,1.03,12.88,2.94l-3.24,3.24
		l-36.62,36.62c-1.87-3.9-2.95-8.26-2.95-12.87C723.41,339.39,736.83,325.97,753.34,325.97z"/>
	<path class="st2" d="M518.74,255.88c-27.51,0-49.88,22.38-49.88,49.88h-9.98c-5.51,0-9.97,4.47-9.97,9.98
		c0,5.51,4.47,9.98,9.97,9.98h9.98v69.83c0,5.51,4.46,9.98,9.97,9.98c5.51,0,9.97-4.47,9.97-9.98v-69.83h9.98
		c5.51,0,9.97-4.47,9.97-9.98c0-5.51-4.47-9.98-9.97-9.98h-9.98c0-16.5,13.43-29.93,29.93-29.93c5.51,0,9.97-4.47,9.97-9.98
		C528.72,260.35,524.25,255.88,518.74,255.88z"/>
	<path class="st2" d="M585.66,255.88c-27.51,0-49.88,22.38-49.88,49.88h-9.98c-5.51,0-9.97,4.47-9.97,9.98
		c0,5.51,4.47,9.98,9.97,9.98h9.98v69.83c0,5.51,4.46,9.98,9.97,9.98c5.51,0,9.97-4.47,9.97-9.98v-69.83h9.98
		c5.51,0,9.97-4.47,9.97-9.98c0-5.51-4.47-9.98-9.97-9.98h-9.98c0-16.5,13.43-29.93,29.93-29.93c5.51,0,9.97-4.47,9.97-9.98
		C595.64,260.35,591.17,255.88,585.66,255.88z"/>
	<g>
		<path class="st2" d="M258.95,388.15c-17.92,0-32.51-14.58-32.51-32.51h5.81c0,14.72,11.98,26.7,26.7,26.7
			c14.72,0,26.7-11.98,26.7-26.7h5.81C291.45,373.57,276.87,388.15,258.95,388.15z"/>
	</g>
	<circle class="st2" cx="809.08" cy="395.73" r="10.05"/>
</g>
</svg>
